<svg width="927" height="211" viewBox="0 0 927 211" fill="none" xmlns="http://www.w3.org/2000/svg">
<g clip-path="url(#clip0_26_17)">
<path d="M196.487 208.974H100.391C100.019 208.974 99.6513 208.9 99.3078 208.758C98.9644 208.615 98.6525 208.406 98.3899 208.142C98.1274 207.878 97.9194 207.565 97.7779 207.221C97.6364 206.876 97.5641 206.507 97.5653 206.135V205.996L103.217 93.2576C103.26 92.5375 103.575 91.8607 104.098 91.3654C104.622 90.8702 105.315 90.5938 106.035 90.5928H190.835C192.339 90.5928 193.565 91.7684 193.652 93.2489L199.278 205.438C199.336 205.653 199.365 205.888 199.365 206.144C199.365 206.892 199.068 207.618 198.54 208.148C198.012 208.677 197.295 208.974 196.548 208.974H196.539H196.487ZM117.374 114.245C117.391 118.32 120.061 121.76 123.739 122.936L123.8 122.953C126.765 137.33 136.965 147.972 149.087 147.972C161.209 147.972 171.391 137.322 174.339 122.997C176.312 122.413 178.031 121.183 179.223 119.504C180.414 117.825 181.008 115.794 180.909 113.736C180.81 111.679 180.025 109.714 178.679 108.157C177.332 106.6 175.503 105.541 173.483 105.149C171.464 104.758 169.372 105.056 167.543 105.997C165.713 106.938 164.252 108.467 163.393 110.338C162.534 112.21 162.328 114.316 162.807 116.319C163.286 118.322 164.423 120.106 166.035 121.385L166.052 121.403C163.896 131.835 157.104 139.49 149.052 139.49C141 139.49 134.244 131.879 132.07 121.49C133.297 120.538 134.263 119.289 134.875 117.86C135.488 116.432 135.727 114.87 135.571 113.323C135.415 111.776 134.868 110.295 133.982 109.018C133.096 107.741 131.9 106.711 130.506 106.025C129.113 105.339 127.568 105.019 126.018 105.096C124.467 105.173 122.961 105.644 121.642 106.464C120.324 107.285 119.235 108.428 118.479 109.786C117.723 111.144 117.325 112.672 117.322 114.227V114.253L117.374 114.245ZM2.82612 197.853C2.44218 197.853 2.06239 197.774 1.70992 197.621C1.35745 197.469 1.03969 197.246 0.776045 196.967C0.512398 196.687 0.308387 196.357 0.176463 195.996C0.0445388 195.635 -0.0125322 195.25 0.00873268 194.866L7.8696 38.1686C7.91171 37.4486 8.22676 36.7718 8.7504 36.2765C9.27403 35.7812 9.96674 35.5049 10.687 35.5039H29.8522C35.8609 14.6039 51.8957 0.00872803 70.5392 0.00872803C89.1827 0.00872803 105.2 14.6126 111.209 35.4865H128.557C130.052 35.4865 131.287 36.6621 131.365 38.1425L133.635 83.5129H106.035C100.748 83.5129 96.4348 87.6668 96.1653 92.8918V92.9179L90.9044 197.862L2.82612 197.853ZM95.2 49.4459C92.9384 50.9224 91.213 53.0903 90.2804 55.6275C89.3477 58.1647 89.2577 60.9356 90.0235 63.5281C90.7894 66.1207 92.3704 68.3964 94.5313 70.017C96.6922 71.6376 99.3177 72.5165 102.017 72.523C104.951 72.5359 107.795 71.517 110.055 69.6442C112.315 67.7714 113.847 65.1635 114.383 62.2754C114.919 59.3873 114.426 56.4024 112.989 53.8413C111.552 51.2802 109.264 49.3055 106.522 48.2616L106.435 48.2355C104.383 25.0887 89.0696 7.05377 70.5479 7.05377C52.0261 7.05377 36.6522 25.1236 34.6261 48.3139C32.0059 49.3403 29.8072 51.2207 28.3846 53.6517C26.962 56.0826 26.3984 58.9226 26.7847 61.7136C27.1709 64.5046 28.4845 67.084 30.5136 69.0359C32.5428 70.9878 35.1692 72.1984 37.9694 72.4726C40.7697 72.7468 43.5805 72.0685 45.9487 70.5471C48.3169 69.0258 50.1045 66.75 51.0232 64.0868C51.9419 61.4236 51.9383 58.5281 51.0127 55.8672C50.0872 53.2063 48.2939 50.9351 45.9218 49.4198L45.8696 49.3937C47.3305 31.9596 57.8348 18.392 70.5479 18.392C83.2609 18.392 93.7913 32.0031 95.2261 49.4721L95.2 49.4459ZM57.0348 35.4691H83.9913C82.8491 32.7571 81.0052 30.3993 78.6497 28.6389C76.2942 26.8785 73.5125 25.7793 70.5913 25.4545L70.5131 25.4458C64.4261 26.1163 59.3826 30.0176 57.0783 35.3733L57.0348 35.4691ZM168.33 114.001C168.297 113.545 168.359 113.087 168.51 112.656C168.662 112.225 168.9 111.829 169.211 111.495C169.522 111.16 169.899 110.893 170.317 110.71C170.736 110.528 171.187 110.434 171.644 110.434C172.1 110.434 172.552 110.528 172.97 110.71C173.388 110.893 173.765 111.16 174.076 111.495C174.387 111.829 174.625 112.225 174.777 112.656C174.928 113.087 174.99 113.545 174.957 114.001C174.883 114.829 174.503 115.599 173.89 116.16C173.278 116.722 172.478 117.033 171.648 117.033C170.818 117.033 170.018 116.722 169.405 116.16C168.793 115.599 168.404 114.829 168.33 114.001ZM122.904 114.001C122.904 113.343 123.099 112.7 123.464 112.153C123.829 111.606 124.348 111.179 124.955 110.927C125.562 110.676 126.23 110.61 126.874 110.738C127.519 110.867 128.11 111.183 128.575 111.649C129.04 112.114 129.356 112.707 129.484 113.352C129.612 113.997 129.546 114.666 129.295 115.274C129.044 115.882 128.618 116.401 128.072 116.767C127.525 117.132 126.883 117.327 126.226 117.327C125.792 117.325 125.363 117.237 124.963 117.069C124.563 116.9 124.2 116.655 123.895 116.346C123.589 116.037 123.348 115.671 123.184 115.269C123.02 114.866 122.937 114.435 122.939 114.001H122.904ZM97.0261 60.4794C97.0261 59.1687 97.546 57.9117 98.4715 56.9849C99.3969 56.0581 100.652 55.5374 101.961 55.5374C103.27 55.5374 104.525 56.0581 105.45 56.9849C106.376 57.9117 106.896 59.1687 106.896 60.4794C106.896 61.7901 106.376 63.0471 105.45 63.9739C104.525 64.9007 103.27 65.4214 101.961 65.4214C100.652 65.4214 99.3969 64.9007 98.4715 63.9739C97.546 63.0471 97.0261 61.7901 97.0261 60.4794ZM34.1739 60.4794C34.1246 59.799 34.2157 59.1158 34.4418 58.4722C34.6679 57.8287 35.0239 57.2388 35.4878 56.7393C35.9517 56.2397 36.5134 55.8413 37.1379 55.5688C37.7624 55.2964 38.4363 55.1558 39.1174 55.1558C39.7986 55.1558 40.4725 55.2964 41.097 55.5688C41.7215 55.8413 42.2832 56.2397 42.747 56.7393C43.2109 57.2388 43.567 57.8287 43.7931 58.4722C44.0191 59.1158 44.1103 59.799 44.0609 60.4794C43.9569 61.7196 43.3915 62.8754 42.4767 63.7178C41.5619 64.5602 40.3645 65.0277 39.1218 65.0277C37.879 65.0277 36.6816 64.5602 35.7669 63.7178C34.8521 62.8754 34.278 61.7196 34.1739 60.4794Z" fill="#4B71BE"/>
</g>
<path d="M295.58 157.96C291.98 158.44 288.62 158.74 285.5 158.86C282.5 158.98 279.62 159.04 276.86 159.04C268.82 159.04 263.42 158.44 260.66 157.24C257.9 155.92 256.52 153.7 256.52 150.58C256.52 148.54 257.18 146.68 258.5 145C259.94 143.32 261.98 141.88 264.62 140.68C267.74 139.36 272.3 138.16 278.3 137.08C284.42 135.88 290.72 135.28 297.2 135.28C305.6 135.28 312.08 136 316.64 137.44C321.32 138.76 323.66 141.34 323.66 145.18C323.66 148.18 322.46 150.76 320.06 152.92C317.66 154.96 313.7 156.28 308.18 156.88L295.58 157.96ZM308.9 154.36C312.02 158.32 314.24 162.34 315.56 166.42C316.88 170.5 317.54 174.16 317.54 177.4C317.54 182.8 315.92 188.02 312.68 193.06C309.56 197.98 304.64 202.06 297.92 205.3C291.2 208.42 282.38 209.98 271.46 209.98C257.42 209.98 245.72 207.4 236.36 202.24C227.12 196.96 220.22 189.58 215.66 180.1C211.1 170.5 208.82 159.34 208.82 146.62C208.82 132.94 211.7 120.82 217.46 110.26C223.22 99.7 231.38 91.48 241.94 85.6C252.5 79.6 264.86 76.6 279.02 76.6C290.78 76.6 299.78 78.7 306.02 82.9C312.38 86.98 315.56 91.78 315.56 97.3C315.56 100.66 314.42 103.3 312.14 105.22C309.98 107.02 306.8 107.92 302.6 107.92C300.08 107.92 297.44 107.5 294.68 106.66C292.04 105.82 289.04 105.04 285.68 104.32C282.44 103.48 278.72 103.06 274.52 103.06C266.84 103.06 259.76 104.5 253.28 107.38C246.8 110.14 241.58 114.76 237.62 121.24C233.78 127.6 231.86 136.18 231.86 146.98C231.86 156.22 233.6 163.78 237.08 169.66C240.68 175.42 245.66 179.68 252.02 182.44C258.38 185.08 265.64 186.4 273.8 186.4C279.32 186.4 283.64 185.8 286.76 184.6C290 183.4 292.28 181.6 293.6 179.2C295.04 176.8 295.76 173.74 295.76 170.02C295.76 167.98 295.46 165.46 294.86 162.46C294.38 159.46 293.6 156.46 292.52 153.46L308.9 154.36ZM381.458 208.54C371.858 208.54 363.458 206.44 356.258 202.24C349.178 197.92 343.658 191.8 339.698 183.88C335.858 175.96 333.938 166.54 333.938 155.62C333.938 144.22 335.918 134.26 339.878 125.74C343.838 117.22 349.418 110.56 356.618 105.76C363.938 100.96 372.398 98.56 381.998 98.56C392.318 98.56 401.258 100.9 408.818 105.58C416.378 110.14 422.258 116.56 426.458 124.84C430.658 133.12 432.758 142.78 432.758 153.82C432.758 165.1 430.658 174.82 426.458 182.98C422.258 191.14 416.318 197.44 408.638 201.88C400.958 206.32 391.898 208.54 381.458 208.54ZM383.978 184.24C391.418 184.24 397.298 181.3 401.618 175.42C406.058 169.42 408.278 161.5 408.278 151.66C408.278 141.7 406.058 133.78 401.618 127.9C397.298 122.02 391.418 119.08 383.978 119.08C376.298 119.08 370.238 122.02 365.798 127.9C361.358 133.78 359.138 141.7 359.138 151.66C359.138 161.5 361.358 169.42 365.798 175.42C370.238 181.3 376.298 184.24 383.978 184.24ZM494.661 208.54C485.061 208.54 476.661 206.44 469.461 202.24C462.381 197.92 456.861 191.8 452.901 183.88C449.061 175.96 447.141 166.54 447.141 155.62C447.141 144.22 449.121 134.26 453.081 125.74C457.041 117.22 462.621 110.56 469.821 105.76C477.141 100.96 485.601 98.56 495.201 98.56C505.521 98.56 514.461 100.9 522.021 105.58C529.581 110.14 535.461 116.56 539.661 124.84C543.861 133.12 545.961 142.78 545.961 153.82C545.961 165.1 543.861 174.82 539.661 182.98C535.461 191.14 529.521 197.44 521.841 201.88C514.161 206.32 505.101 208.54 494.661 208.54ZM497.181 184.24C504.621 184.24 510.501 181.3 514.821 175.42C519.261 169.42 521.481 161.5 521.481 151.66C521.481 141.7 519.261 133.78 514.821 127.9C510.501 122.02 504.621 119.08 497.181 119.08C489.501 119.08 483.441 122.02 479.001 127.9C474.561 133.78 472.341 141.7 472.341 151.66C472.341 161.5 474.561 169.42 479.001 175.42C483.441 181.3 489.501 184.24 497.181 184.24ZM597.785 210.52C586.025 210.52 576.845 206.14 570.245 197.38C563.645 188.5 560.345 175 560.345 156.88C560.345 138.88 563.585 125.74 570.065 117.46C576.665 109.06 586.085 104.86 598.325 104.86C605.285 104.86 611.345 106.3 616.505 109.18C621.785 112.06 626.465 116.14 630.545 121.42L629.105 122.14C628.025 117.22 626.945 112 625.865 106.48C624.785 100.96 623.885 95.74 623.165 90.82C622.565 85.78 622.265 81.82 622.265 78.94C622.265 74.86 622.925 71.74 624.245 69.58C625.565 67.3 627.665 66.16 630.545 66.16C634.625 66.16 637.925 67.9 640.445 71.38C642.965 74.74 645.065 79.96 646.745 87.04C648.305 93.4 649.685 100.96 650.885 109.72C652.085 118.36 653.045 127.42 653.765 136.9C654.605 146.26 655.025 155.26 655.025 163.9C655.025 175.9 654.365 185.26 653.045 191.98C651.845 198.58 650.105 203.2 647.825 205.84C645.665 208.48 643.085 209.8 640.085 209.8C636.365 209.8 633.845 207.94 632.525 204.22C631.205 200.5 630.665 194.44 630.905 186.04H633.605C630.365 193.48 625.625 199.42 619.385 203.86C613.265 208.3 606.065 210.52 597.785 210.52ZM607.325 188.2C611.645 188.2 615.605 187.12 619.205 184.96C622.925 182.68 625.865 179.2 628.025 174.52C630.305 169.84 631.445 163.9 631.445 156.7C631.445 147.46 629.345 139.96 625.145 134.2C620.945 128.32 614.885 125.38 606.965 125.38C600.725 125.38 595.625 127.96 591.665 133.12C587.825 138.28 585.905 146.08 585.905 156.52C585.905 165.76 587.825 173.38 591.665 179.38C595.625 185.26 600.845 188.2 607.325 188.2ZM692.816 69.94C697.616 69.94 701.036 71.26 703.076 73.9C705.236 76.54 706.316 79.6 706.316 83.08C706.316 87.4 704.996 90.76 702.356 93.16C699.836 95.44 696.236 96.58 691.556 96.58C686.996 96.58 683.576 95.32 681.296 92.8C679.016 90.16 677.876 87.1 677.876 83.62C677.876 79.06 679.256 75.64 682.016 73.36C684.776 71.08 688.376 69.94 692.816 69.94ZM693.896 110.08C697.736 110.08 700.736 113.68 702.896 120.88C705.176 128.08 706.316 139.54 706.316 155.26C706.316 174.58 704.936 188.5 702.176 197.02C699.416 205.54 695.216 209.8 689.576 209.8C685.256 209.8 682.076 206.68 680.036 200.44C677.996 194.08 676.976 183.04 676.976 167.32C676.976 148 678.536 133.66 681.656 124.3C684.896 114.82 688.976 110.08 693.896 110.08ZM778.704 209.44C765.384 209.44 754.764 207.46 746.844 203.5C738.924 199.54 733.224 193.84 729.744 186.4C726.264 178.96 724.524 170.08 724.524 159.76C724.524 146.68 726.924 135.58 731.724 126.46C736.644 117.22 743.364 110.14 751.884 105.22C760.524 100.3 770.304 97.84 781.224 97.84C794.064 97.84 803.484 100.84 809.484 106.84C815.484 112.72 818.484 120.46 818.484 130.06C818.484 137.74 816.444 144.4 812.364 150.04C808.404 155.56 802.884 159.82 795.804 162.82C788.724 165.82 780.564 167.32 771.324 167.32C766.164 167.32 761.184 166.66 756.384 165.34C751.584 164.02 747.264 162.22 743.424 159.94L747.744 152.02C747.384 154.9 747.204 157.78 747.204 160.66C747.204 169.06 749.844 175.12 755.124 178.84C760.404 182.44 767.904 184.24 777.624 184.24C785.184 184.24 791.244 183.58 795.804 182.26C800.364 180.94 804.204 179.68 807.324 178.48C810.444 177.16 813.504 176.5 816.504 176.5C818.184 176.5 819.684 176.98 821.004 177.94C822.444 178.78 823.584 180.04 824.424 181.72C825.384 183.4 825.864 185.44 825.864 187.84C825.864 191.44 824.064 194.92 820.464 198.28C816.864 201.52 811.524 204.22 804.444 206.38C797.484 208.42 788.904 209.44 778.704 209.44ZM768.264 150.58C776.784 150.58 783.624 148.78 788.784 145.18C793.944 141.58 796.524 137.14 796.524 131.86C796.524 127.66 795.084 124.24 792.204 121.6C789.444 118.84 785.064 117.46 779.064 117.46C773.424 117.46 768.324 118.54 763.764 120.7C759.324 122.74 755.844 125.44 753.324 128.8C750.804 132.16 749.544 135.82 749.544 139.78C749.544 143.26 751.164 145.96 754.404 147.88C757.764 149.68 762.384 150.58 768.264 150.58ZM887.223 95.32C897.903 95.32 905.583 96.88 910.263 100C914.943 103.12 917.283 107.14 917.283 112.06C917.283 114.94 916.263 117.34 914.223 119.26C912.303 121.06 909.543 121.96 905.943 121.96C902.223 121.96 898.323 121.42 894.243 120.34C890.283 119.26 885.663 118.72 880.383 118.72C874.263 118.72 869.703 119.92 866.703 122.32C863.703 124.72 862.203 127.78 862.203 131.5C862.203 134.98 863.523 137.74 866.163 139.78C868.923 141.7 874.143 143.14 881.823 144.1C890.343 145.06 897.363 146.62 902.883 148.78C908.523 150.82 912.723 153.94 915.483 158.14C918.243 162.22 919.623 167.86 919.623 175.06C919.623 186.46 915.603 194.92 907.563 200.44C899.523 205.96 888.423 208.72 874.263 208.72C865.263 208.72 858.123 208 852.843 206.56C847.563 205.12 843.723 203.08 841.323 200.44C839.043 197.8 837.903 194.68 837.903 191.08C837.903 187.96 838.923 185.56 840.963 183.88C843.123 182.08 845.643 181.18 848.523 181.18C851.283 181.18 854.223 181.54 857.343 182.26C860.463 182.86 863.763 183.52 867.243 184.24C870.723 184.96 874.323 185.32 878.043 185.32C890.043 185.32 896.043 181.6 896.043 174.16C896.043 171.64 895.443 169.6 894.243 168.04C893.043 166.48 890.883 165.22 887.763 164.26C884.643 163.18 880.083 162.34 874.083 161.74C866.883 161.02 860.643 159.82 855.363 158.14C850.083 156.34 846.003 153.46 843.123 149.5C840.243 145.42 838.803 139.84 838.803 132.76C838.803 121.6 843.003 112.6 851.403 105.76C859.803 98.8 871.743 95.32 887.223 95.32Z" fill="#4B71BE"/>
<defs>
<clipPath id="clip0_26_17">
<rect width="200" height="209" fill="white"/>
</clipPath>
</defs>
</svg>
