<svg width="674" height="209" viewBox="0 0 674 209" fill="none" xmlns="http://www.w3.org/2000/svg">
<g clip-path="url(#clip0_26_17)">
<path d="M196.487 208.974H100.391C100.019 208.974 99.6513 208.9 99.3078 208.758C98.9644 208.615 98.6525 208.406 98.3899 208.142C98.1274 207.878 97.9194 207.565 97.7779 207.221C97.6364 206.876 97.5641 206.507 97.5653 206.135V205.996L103.217 93.2576C103.26 92.5375 103.575 91.8607 104.098 91.3654C104.622 90.8702 105.315 90.5938 106.035 90.5928H190.835C192.339 90.5928 193.565 91.7684 193.652 93.2489L199.278 205.438C199.336 205.653 199.365 205.888 199.365 206.144C199.365 206.892 199.068 207.618 198.54 208.148C198.012 208.677 197.295 208.974 196.548 208.974H196.539H196.487ZM117.374 114.245C117.391 118.32 120.061 121.76 123.739 122.936L123.8 122.953C126.765 137.33 136.965 147.972 149.087 147.972C161.209 147.972 171.391 137.322 174.339 122.997C176.312 122.413 178.031 121.183 179.223 119.504C180.414 117.825 181.008 115.794 180.909 113.736C180.81 111.679 180.025 109.714 178.679 108.157C177.332 106.6 175.503 105.541 173.483 105.149C171.464 104.758 169.372 105.056 167.543 105.997C165.713 106.938 164.252 108.467 163.393 110.338C162.534 112.21 162.328 114.316 162.807 116.319C163.286 118.322 164.423 120.106 166.035 121.385L166.052 121.403C163.896 131.835 157.104 139.49 149.052 139.49C141 139.49 134.244 131.879 132.07 121.49C133.297 120.538 134.263 119.289 134.875 117.86C135.488 116.432 135.727 114.87 135.571 113.323C135.415 111.776 134.868 110.295 133.982 109.018C133.096 107.741 131.9 106.711 130.506 106.025C129.113 105.339 127.568 105.019 126.018 105.096C124.467 105.173 122.961 105.644 121.642 106.464C120.324 107.285 119.235 108.428 118.479 109.786C117.723 111.144 117.325 112.672 117.322 114.227V114.253L117.374 114.245ZM2.82612 197.853C2.44218 197.853 2.06239 197.774 1.70992 197.621C1.35745 197.469 1.03969 197.246 0.776045 196.967C0.512398 196.687 0.308387 196.357 0.176463 195.996C0.0445388 195.635 -0.0125322 195.25 0.00873268 194.866L7.8696 38.1686C7.91171 37.4486 8.22676 36.7718 8.7504 36.2765C9.27403 35.7812 9.96674 35.5049 10.687 35.5039H29.8522C35.8609 14.6039 51.8957 0.00872803 70.5392 0.00872803C89.1827 0.00872803 105.2 14.6126 111.209 35.4865H128.557C130.052 35.4865 131.287 36.6621 131.365 38.1425L133.635 83.5129H106.035C100.748 83.5129 96.4348 87.6668 96.1653 92.8918V92.9179L90.9044 197.862L2.82612 197.853ZM95.2 49.4459C92.9384 50.9224 91.213 53.0903 90.2804 55.6275C89.3477 58.1647 89.2577 60.9356 90.0235 63.5281C90.7894 66.1207 92.3704 68.3964 94.5313 70.017C96.6922 71.6376 99.3177 72.5165 102.017 72.523C104.951 72.5359 107.795 71.517 110.055 69.6442C112.315 67.7714 113.847 65.1635 114.383 62.2754C114.919 59.3873 114.426 56.4024 112.989 53.8413C111.552 51.2802 109.264 49.3055 106.522 48.2616L106.435 48.2355C104.383 25.0887 89.0696 7.05377 70.5479 7.05377C52.0261 7.05377 36.6522 25.1236 34.6261 48.3139C32.0059 49.3403 29.8072 51.2207 28.3846 53.6517C26.962 56.0826 26.3984 58.9226 26.7847 61.7136C27.1709 64.5046 28.4845 67.084 30.5136 69.0359C32.5428 70.9878 35.1692 72.1984 37.9694 72.4726C40.7697 72.7468 43.5805 72.0685 45.9487 70.5471C48.3169 69.0258 50.1045 66.75 51.0232 64.0868C51.9419 61.4236 51.9383 58.5281 51.0127 55.8672C50.0872 53.2063 48.2939 50.9351 45.9218 49.4198L45.8696 49.3937C47.3305 31.9596 57.8348 18.392 70.5479 18.392C83.2609 18.392 93.7913 32.0031 95.2261 49.4721L95.2 49.4459ZM57.0348 35.4691H83.9913C82.8491 32.7571 81.0052 30.3993 78.6497 28.6389C76.2942 26.8785 73.5125 25.7793 70.5913 25.4545L70.5131 25.4458C64.4261 26.1163 59.3826 30.0176 57.0783 35.3733L57.0348 35.4691ZM168.33 114.001C168.297 113.545 168.359 113.087 168.51 112.656C168.662 112.225 168.9 111.829 169.211 111.495C169.522 111.16 169.899 110.893 170.317 110.71C170.736 110.528 171.187 110.434 171.644 110.434C172.1 110.434 172.552 110.528 172.97 110.71C173.388 110.893 173.765 111.16 174.076 111.495C174.387 111.829 174.625 112.225 174.777 112.656C174.928 113.087 174.99 113.545 174.957 114.001C174.883 114.829 174.503 115.599 173.89 116.16C173.278 116.722 172.478 117.033 171.648 117.033C170.818 117.033 170.018 116.722 169.405 116.16C168.793 115.599 168.404 114.829 168.33 114.001ZM122.904 114.001C122.904 113.343 123.099 112.7 123.464 112.153C123.829 111.606 124.348 111.179 124.955 110.927C125.562 110.676 126.23 110.61 126.874 110.738C127.519 110.867 128.11 111.183 128.575 111.649C129.04 112.114 129.356 112.707 129.484 113.352C129.612 113.997 129.546 114.666 129.295 115.274C129.044 115.882 128.618 116.401 128.072 116.767C127.525 117.132 126.883 117.327 126.226 117.327C125.792 117.325 125.363 117.237 124.963 117.069C124.563 116.9 124.2 116.655 123.895 116.346C123.589 116.037 123.348 115.671 123.184 115.269C123.02 114.866 122.937 114.435 122.939 114.001H122.904ZM97.0261 60.4794C97.0261 59.1687 97.546 57.9117 98.4715 56.9849C99.3969 56.0581 100.652 55.5374 101.961 55.5374C103.27 55.5374 104.525 56.0581 105.45 56.9849C106.376 57.9117 106.896 59.1687 106.896 60.4794C106.896 61.7901 106.376 63.0471 105.45 63.9739C104.525 64.9007 103.27 65.4214 101.961 65.4214C100.652 65.4214 99.3969 64.9007 98.4715 63.9739C97.546 63.0471 97.0261 61.7901 97.0261 60.4794ZM34.1739 60.4794C34.1246 59.799 34.2157 59.1158 34.4418 58.4722C34.6679 57.8287 35.0239 57.2388 35.4878 56.7393C35.9517 56.2397 36.5134 55.8413 37.1379 55.5688C37.7624 55.2964 38.4363 55.1558 39.1174 55.1558C39.7986 55.1558 40.4725 55.2964 41.097 55.5688C41.7215 55.8413 42.2832 56.2397 42.747 56.7393C43.2109 57.2388 43.567 57.8287 43.7931 58.4722C44.0191 59.1158 44.1103 59.799 44.0609 60.4794C43.9569 61.7196 43.3915 62.8754 42.4767 63.7178C41.5619 64.5602 40.3645 65.0277 39.1218 65.0277C37.879 65.0277 36.6816 64.5602 35.7669 63.7178C34.8521 62.8754 34.278 61.7196 34.1739 60.4794Z" fill="#4B71BE"/>
</g>
<path d="M273.88 130.352C272.515 128.389 269.229 126.939 264.024 126C261.72 125.573 259.672 125.36 257.88 125.36C256.088 125.36 254.723 125.659 253.784 126.256C251.139 127.109 249.816 128.176 249.816 129.456C249.816 131.675 252.589 132.784 258.136 132.784C263.768 132.784 269.016 131.973 273.88 130.352ZM275.16 138.032C269.443 140.08 263.768 141.104 258.136 141.104C252.504 141.104 248.024 140.08 244.696 138.032C241.453 135.899 239.832 133.253 239.832 130.096C239.832 126.853 241.411 123.824 244.568 121.008C247.811 118.192 252.376 116.784 258.264 116.784C264.152 116.784 269.187 117.893 273.368 120.112C277.549 122.245 280.493 124.379 282.2 126.512C283.736 125.915 285.827 124.635 288.472 122.672C291.117 120.709 292.867 119.728 293.72 119.728C295.939 119.728 297.048 121.008 297.048 123.568C297.048 126.469 292.952 130.096 284.76 134.448C284.76 146.395 281.261 156.336 274.264 164.272C267.352 172.123 258.605 176.048 248.024 176.048C235.992 176.048 226.008 171.184 218.072 161.456C210.221 151.643 206.296 139.781 206.296 125.872C206.296 111.963 210.349 100.187 218.456 90.544C226.648 80.9013 236.931 76.08 249.304 76.08C256.899 76.08 263.811 77.5733 270.04 80.56C276.269 83.4613 279.384 86.704 279.384 90.288C279.384 92.4213 278.531 93.7867 276.824 94.384C276.227 94.5547 275.459 94.64 274.52 94.64C272.813 94.64 269.827 93.0613 265.56 89.904C261.805 86.6613 256.387 85.04 249.304 85.04C239.832 85.04 232.024 89.0933 225.88 97.2C219.736 105.221 216.664 114.693 216.664 125.616C216.664 136.539 219.608 146.181 225.496 154.544C231.384 162.821 238.851 166.96 247.896 166.96C255.405 166.96 261.805 164.016 267.096 158.128C272.387 152.155 275.075 145.456 275.16 138.032ZM313.976 142.128C313.976 149.211 315.939 155.227 319.864 160.176C323.789 165.125 328.696 167.6 334.584 167.6C340.557 167.6 345.592 165.125 349.688 160.176C353.869 155.141 355.96 149.083 355.96 142C355.96 134.917 353.955 128.901 349.944 123.952C346.019 118.917 341.112 116.4 335.224 116.4C329.421 116.4 324.387 118.917 320.12 123.952C316.024 128.987 313.976 135.045 313.976 142.128ZM313.336 166.192C307.704 159.621 304.888 151.6 304.888 142.128C304.888 132.656 307.747 124.635 313.464 118.064C319.181 111.408 326.392 108.08 335.096 108.08C343.8 108.08 350.968 111.365 356.6 117.936C362.232 124.421 365.048 132.443 365.048 142C365.048 151.472 362.147 159.493 356.344 166.064C350.627 172.635 343.416 175.92 334.712 175.92C326.093 175.92 318.968 172.677 313.336 166.192ZM385.851 142.128C385.851 149.211 387.814 155.227 391.739 160.176C395.664 165.125 400.571 167.6 406.459 167.6C412.432 167.6 417.467 165.125 421.563 160.176C425.744 155.141 427.835 149.083 427.835 142C427.835 134.917 425.83 128.901 421.819 123.952C417.894 118.917 412.987 116.4 407.099 116.4C401.296 116.4 396.262 118.917 391.995 123.952C387.899 128.987 385.851 135.045 385.851 142.128ZM385.211 166.192C379.579 159.621 376.763 151.6 376.763 142.128C376.763 132.656 379.622 124.635 385.339 118.064C391.056 111.408 398.267 108.08 406.971 108.08C415.675 108.08 422.843 111.365 428.475 117.936C434.107 124.421 436.923 132.443 436.923 142C436.923 151.472 434.022 159.493 428.219 166.064C422.502 172.635 415.291 175.92 406.587 175.92C397.968 175.92 390.843 172.677 385.211 166.192ZM497.022 144.816V124.464C491.987 119.515 485.929 117.04 478.846 117.04C473.47 117.04 468.691 119.557 464.51 124.592C460.329 129.541 458.238 135.429 458.238 142.256C458.238 148.997 459.731 154.843 462.718 159.792C465.705 164.571 469.758 166.96 474.878 166.96C483.838 166.96 491.219 159.579 497.022 144.816ZM502.398 76.72C506.579 76.72 508.67 80.176 508.67 87.088C508.67 89.7333 508.499 92.8053 508.158 96.304L506.622 113.072C505.683 123.483 505.129 129.755 504.958 131.888C504.958 143.067 505.342 151.429 506.11 156.976C506.963 162.437 508.457 165.381 510.59 165.808C512.809 165.808 513.918 166.448 513.918 167.728C513.918 169.605 513.278 171.355 511.998 172.976C510.803 174.512 509.054 175.28 506.75 175.28C501.971 175.28 499.027 169.563 497.918 158.128C491.603 169.563 483.71 175.28 474.238 175.28C468.606 175.28 463.827 173.488 459.902 169.904C452.478 163.333 448.766 154.501 448.766 143.408C448.766 134.107 451.582 126 457.214 119.088C462.846 112.176 470.057 108.72 478.846 108.72C485.246 108.72 491.305 110.811 497.022 114.992C497.193 99.12 497.278 89.4347 497.278 85.936C497.278 82.4373 497.662 80.048 498.43 78.768C499.283 77.4027 500.606 76.72 502.398 76.72ZM532.976 81.2C536.475 81.2 538.224 83.248 538.224 87.344C538.224 89.2213 537.584 91.0133 536.304 92.72C535.109 94.3413 533.659 95.152 531.952 95.152C528.368 95.152 526.576 92.976 526.576 88.624C526.576 86.576 527.173 84.8267 528.368 83.376C529.648 81.9253 531.184 81.2 532.976 81.2ZM537.2 115.12L536.56 142L537.2 168.88C537.2 173.147 535.579 175.28 532.336 175.28C529.093 175.28 527.472 173.147 527.472 168.88L528.112 142L527.472 115.12C527.472 110.853 529.093 108.72 532.336 108.72C535.579 108.72 537.2 110.853 537.2 115.12ZM587.201 116.4C581.569 116.4 576.833 118.533 572.993 122.8C569.238 126.981 566.764 131.888 565.569 137.52C570.177 138.885 575.34 139.568 581.057 139.568C586.86 139.568 591.51 138.587 595.009 136.624C598.508 134.661 600.257 131.973 600.257 128.56C600.257 125.147 599.062 122.288 596.673 119.984C594.369 117.595 591.212 116.4 587.201 116.4ZM581.697 147.632C577.26 147.632 571.841 146.992 565.441 145.712C565.953 151.771 568.172 156.933 572.097 161.2C576.108 165.467 580.758 167.6 586.049 167.6C591.34 167.6 595.692 166.32 599.105 163.76C602.518 161.115 604.737 159.792 605.761 159.792C606.87 159.792 607.724 160.133 608.321 160.816C609.004 161.413 609.345 162.181 609.345 163.12C609.345 165.509 606.87 168.24 601.921 171.312C597.057 174.384 591.766 175.92 586.049 175.92C577.174 175.92 570.092 172.805 564.801 166.576C559.596 160.261 556.822 152.752 556.481 144.048C551.958 142.597 549.697 140.379 549.697 137.392C549.697 135.429 550.422 134.149 551.873 133.552C552.385 133.381 553.025 133.296 553.793 133.296C554.646 133.296 555.798 133.68 557.249 134.448C559.212 126.683 562.753 120.368 567.873 115.504C573.078 110.555 579.137 108.08 586.049 108.08C593.046 108.08 598.678 110 602.945 113.84C607.212 117.68 609.345 122.715 609.345 128.944C609.345 135.088 606.7 139.739 601.409 142.896C596.118 146.053 589.548 147.632 581.697 147.632ZM668.873 155.568C668.873 161.285 666.484 166.021 661.705 169.776C657.012 173.445 651.38 175.28 644.809 175.28C638.238 175.28 632.478 173.787 627.529 170.8C622.665 167.728 620.233 164.699 620.233 161.712C620.233 159.749 621.044 158.427 622.665 157.744C624.286 157.061 625.524 157.147 626.377 158C626.548 158.085 628.254 159.749 631.497 162.992C632.436 163.845 634.185 164.741 636.745 165.68C639.305 166.533 641.566 166.96 643.529 166.96C648.308 166.96 652.19 165.979 655.177 164.016C658.164 162.053 659.657 159.28 659.657 155.696C659.657 151.173 655.39 147.461 646.857 144.56C637.385 141.317 631.326 138.544 628.681 136.24C627.401 135.131 626.206 133.68 625.097 131.888C624.073 130.011 623.561 128.048 623.561 126C623.561 121.392 625.652 117.381 629.833 113.968C634.1 110.469 639.177 108.72 645.065 108.72C650.953 108.72 655.732 109.744 659.401 111.792C663.07 113.755 664.905 115.973 664.905 118.448C664.905 121.264 663.412 122.672 660.425 122.672C659.23 122.672 657.95 122.203 656.585 121.264C652.489 118.448 648.521 117.04 644.681 117.04C640.926 117.04 638.068 117.893 636.105 119.6C633.801 121.221 632.649 123.141 632.649 125.36C632.649 127.493 633.758 129.243 635.977 130.608C638.196 131.973 641.822 133.68 646.857 135.728C651.892 137.691 654.964 138.928 656.073 139.44C659.828 141.061 662.9 143.28 665.289 146.096C667.678 148.912 668.873 152.069 668.873 155.568Z" fill="#4B71BE"/>
<defs>
<clipPath id="clip0_26_17">
<rect width="200" height="209" fill="white"/>
</clipPath>
</defs>
</svg>
