<svg width="942" height="209" viewBox="0 0 942 209" fill="none" xmlns="http://www.w3.org/2000/svg">
<g clip-path="url(#clip0_26_17)">
<path d="M196.487 208.974H100.391C100.019 208.974 99.6513 208.9 99.3078 208.758C98.9644 208.615 98.6525 208.406 98.3899 208.142C98.1274 207.878 97.9194 207.565 97.7779 207.221C97.6364 206.876 97.5641 206.507 97.5653 206.135V205.996L103.217 93.2576C103.26 92.5375 103.575 91.8607 104.098 91.3654C104.622 90.8702 105.315 90.5938 106.035 90.5928H190.835C192.339 90.5928 193.565 91.7684 193.652 93.2489L199.278 205.438C199.336 205.653 199.365 205.888 199.365 206.144C199.365 206.892 199.068 207.618 198.54 208.148C198.012 208.677 197.295 208.974 196.548 208.974H196.539H196.487ZM117.374 114.245C117.391 118.32 120.061 121.76 123.739 122.936L123.8 122.953C126.765 137.33 136.965 147.972 149.087 147.972C161.209 147.972 171.391 137.322 174.339 122.997C176.312 122.413 178.031 121.183 179.223 119.504C180.414 117.825 181.008 115.794 180.909 113.736C180.81 111.679 180.025 109.714 178.679 108.157C177.332 106.6 175.503 105.541 173.483 105.149C171.464 104.758 169.372 105.056 167.543 105.997C165.713 106.938 164.252 108.467 163.393 110.338C162.534 112.21 162.328 114.316 162.807 116.319C163.286 118.322 164.423 120.106 166.035 121.385L166.052 121.403C163.896 131.835 157.104 139.49 149.052 139.49C141 139.49 134.244 131.879 132.07 121.49C133.297 120.538 134.263 119.289 134.875 117.86C135.488 116.432 135.727 114.87 135.571 113.323C135.415 111.776 134.868 110.295 133.982 109.018C133.096 107.741 131.9 106.711 130.506 106.025C129.113 105.339 127.568 105.019 126.018 105.096C124.467 105.173 122.961 105.644 121.642 106.464C120.324 107.285 119.235 108.428 118.479 109.786C117.723 111.144 117.325 112.672 117.322 114.227V114.253L117.374 114.245ZM2.82612 197.853C2.44218 197.853 2.06239 197.774 1.70992 197.621C1.35745 197.469 1.03969 197.246 0.776045 196.967C0.512398 196.687 0.308387 196.357 0.176463 195.996C0.0445388 195.635 -0.0125322 195.25 0.00873268 194.866L7.8696 38.1686C7.91171 37.4486 8.22676 36.7718 8.7504 36.2765C9.27403 35.7812 9.96674 35.5049 10.687 35.5039H29.8522C35.8609 14.6039 51.8957 0.00872803 70.5392 0.00872803C89.1827 0.00872803 105.2 14.6126 111.209 35.4865H128.557C130.052 35.4865 131.287 36.6621 131.365 38.1425L133.635 83.5129H106.035C100.748 83.5129 96.4348 87.6668 96.1653 92.8918V92.9179L90.9044 197.862L2.82612 197.853ZM95.2 49.4459C92.9384 50.9224 91.213 53.0903 90.2804 55.6275C89.3477 58.1647 89.2577 60.9356 90.0235 63.5281C90.7894 66.1207 92.3704 68.3964 94.5313 70.017C96.6922 71.6376 99.3177 72.5165 102.017 72.523C104.951 72.5359 107.795 71.517 110.055 69.6442C112.315 67.7714 113.847 65.1635 114.383 62.2754C114.919 59.3873 114.426 56.4024 112.989 53.8413C111.552 51.2802 109.264 49.3055 106.522 48.2616L106.435 48.2355C104.383 25.0887 89.0696 7.05377 70.5479 7.05377C52.0261 7.05377 36.6522 25.1236 34.6261 48.3139C32.0059 49.3403 29.8072 51.2207 28.3846 53.6517C26.962 56.0826 26.3984 58.9226 26.7847 61.7136C27.1709 64.5046 28.4845 67.084 30.5136 69.0359C32.5428 70.9878 35.1692 72.1984 37.9694 72.4726C40.7697 72.7468 43.5805 72.0685 45.9487 70.5471C48.3169 69.0258 50.1045 66.75 51.0232 64.0868C51.9419 61.4236 51.9383 58.5281 51.0127 55.8672C50.0872 53.2063 48.2939 50.9351 45.9218 49.4198L45.8696 49.3937C47.3305 31.9596 57.8348 18.392 70.5479 18.392C83.2609 18.392 93.7913 32.0031 95.2261 49.4721L95.2 49.4459ZM57.0348 35.4691H83.9913C82.8491 32.7571 81.0052 30.3993 78.6497 28.6389C76.2942 26.8785 73.5125 25.7793 70.5913 25.4545L70.5131 25.4458C64.4261 26.1163 59.3826 30.0176 57.0783 35.3733L57.0348 35.4691ZM168.33 114.001C168.297 113.545 168.359 113.087 168.51 112.656C168.662 112.225 168.9 111.829 169.211 111.495C169.522 111.16 169.899 110.893 170.317 110.71C170.736 110.528 171.187 110.434 171.644 110.434C172.1 110.434 172.552 110.528 172.97 110.71C173.388 110.893 173.765 111.16 174.076 111.495C174.387 111.829 174.625 112.225 174.777 112.656C174.928 113.087 174.99 113.545 174.957 114.001C174.883 114.829 174.503 115.599 173.89 116.16C173.278 116.722 172.478 117.033 171.648 117.033C170.818 117.033 170.018 116.722 169.405 116.16C168.793 115.599 168.404 114.829 168.33 114.001ZM122.904 114.001C122.904 113.343 123.099 112.7 123.464 112.153C123.829 111.606 124.348 111.179 124.955 110.927C125.562 110.676 126.23 110.61 126.874 110.738C127.519 110.867 128.11 111.183 128.575 111.649C129.04 112.114 129.356 112.707 129.484 113.352C129.612 113.997 129.546 114.666 129.295 115.274C129.044 115.882 128.618 116.401 128.072 116.767C127.525 117.132 126.883 117.327 126.226 117.327C125.792 117.325 125.363 117.237 124.963 117.069C124.563 116.9 124.2 116.655 123.895 116.346C123.589 116.037 123.348 115.671 123.184 115.269C123.02 114.866 122.937 114.435 122.939 114.001H122.904ZM97.0261 60.4794C97.0261 59.1687 97.546 57.9117 98.4715 56.9849C99.3969 56.0581 100.652 55.5374 101.961 55.5374C103.27 55.5374 104.525 56.0581 105.45 56.9849C106.376 57.9117 106.896 59.1687 106.896 60.4794C106.896 61.7901 106.376 63.0471 105.45 63.9739C104.525 64.9007 103.27 65.4214 101.961 65.4214C100.652 65.4214 99.3969 64.9007 98.4715 63.9739C97.546 63.0471 97.0261 61.7901 97.0261 60.4794ZM34.1739 60.4794C34.1246 59.799 34.2157 59.1158 34.4418 58.4722C34.6679 57.8287 35.0239 57.2388 35.4878 56.7393C35.9517 56.2397 36.5134 55.8413 37.1379 55.5688C37.7624 55.2964 38.4363 55.1558 39.1174 55.1558C39.7986 55.1558 40.4725 55.2964 41.097 55.5688C41.7215 55.8413 42.2832 56.2397 42.747 56.7393C43.2109 57.2388 43.567 57.8287 43.7931 58.4722C44.0191 59.1158 44.1103 59.799 44.0609 60.4794C43.9569 61.7196 43.3915 62.8754 42.4767 63.7178C41.5619 64.5602 40.3645 65.0277 39.1218 65.0277C37.879 65.0277 36.6816 64.5602 35.7669 63.7178C34.8521 62.8754 34.278 61.7196 34.1739 60.4794Z" fill="#4B71BE"/>
</g>
<path d="M317 134.8C314.867 131.733 309.733 129.467 301.6 128C298 127.333 294.8 127 292 127C289.2 127 287.067 127.467 285.6 128.4C281.467 129.733 279.4 131.4 279.4 133.4C279.4 136.867 283.733 138.6 292.4 138.6C301.2 138.6 309.4 137.333 317 134.8ZM319 146.8C310.067 150 301.2 151.6 292.4 151.6C283.6 151.6 276.6 150 271.4 146.8C266.333 143.467 263.8 139.333 263.8 134.4C263.8 129.333 266.267 124.6 271.2 120.2C276.267 115.8 283.4 113.6 292.6 113.6C301.8 113.6 309.667 115.333 316.2 118.8C322.733 122.133 327.333 125.467 330 128.8C332.4 127.867 335.667 125.867 339.8 122.8C343.933 119.733 346.667 118.2 348 118.2C351.467 118.2 353.2 120.2 353.2 124.2C353.2 128.733 346.8 134.4 334 141.2C334 159.867 328.533 175.4 317.6 187.8C306.8 200.067 293.133 206.2 276.6 206.2C257.8 206.2 242.2 198.6 229.8 183.4C217.533 168.067 211.4 149.533 211.4 127.8C211.4 106.067 217.733 87.6667 230.4 72.6C243.2 57.5333 259.267 50 278.6 50C290.467 50 301.267 52.3333 311 57C320.733 61.5333 325.6 66.6 325.6 72.2C325.6 75.5333 324.267 77.6667 321.6 78.6C320.667 78.8667 319.467 79 318 79C315.333 79 310.667 76.5333 304 71.6C298.133 66.5333 289.667 64 278.6 64C263.8 64 251.6 70.3333 242 83C232.4 95.5333 227.6 110.333 227.6 127.4C227.6 144.467 232.2 159.533 241.4 172.6C250.6 185.533 262.267 192 276.4 192C288.133 192 298.133 187.4 306.4 178.2C314.667 168.867 318.867 158.4 319 146.8ZM379.65 153.2C379.65 164.267 382.717 173.667 388.85 181.4C394.983 189.133 402.65 193 411.85 193C421.183 193 429.05 189.133 435.45 181.4C441.983 173.533 445.25 164.067 445.25 153C445.25 141.933 442.117 132.533 435.85 124.8C429.717 116.933 422.05 113 412.85 113C403.783 113 395.917 116.933 389.25 124.8C382.85 132.667 379.65 142.133 379.65 153.2ZM378.65 190.8C369.85 180.533 365.45 168 365.45 153.2C365.45 138.4 369.917 125.867 378.85 115.6C387.783 105.2 399.05 100 412.65 100C426.25 100 437.45 105.133 446.25 115.4C455.05 125.533 459.45 138.067 459.45 153C459.45 167.8 454.917 180.333 445.85 190.6C436.917 200.867 425.65 206 412.05 206C398.583 206 387.45 200.933 378.65 190.8ZM491.955 153.2C491.955 164.267 495.021 173.667 501.155 181.4C507.288 189.133 514.955 193 524.155 193C533.488 193 541.355 189.133 547.755 181.4C554.288 173.533 557.555 164.067 557.555 153C557.555 141.933 554.421 132.533 548.155 124.8C542.021 116.933 534.355 113 525.155 113C516.088 113 508.221 116.933 501.555 124.8C495.155 132.667 491.955 142.133 491.955 153.2ZM490.955 190.8C482.155 180.533 477.755 168 477.755 153.2C477.755 138.4 482.221 125.867 491.155 115.6C500.088 105.2 511.355 100 524.955 100C538.555 100 549.755 105.133 558.555 115.4C567.355 125.533 571.755 138.067 571.755 153C571.755 167.8 567.221 180.333 558.155 190.6C549.221 200.867 537.955 206 524.355 206C510.888 206 499.755 200.933 490.955 190.8ZM665.659 157.4V125.6C657.793 117.867 648.326 114 637.259 114C628.859 114 621.393 117.933 614.859 125.8C608.326 133.533 605.059 142.733 605.059 153.4C605.059 163.933 607.393 173.067 612.059 180.8C616.726 188.267 623.059 192 631.059 192C645.059 192 656.593 180.467 665.659 157.4ZM674.059 51C680.593 51 683.859 56.4 683.859 67.2C683.859 71.3333 683.593 76.1333 683.059 81.6L680.659 107.8C679.193 124.067 678.326 133.867 678.059 137.2C678.059 154.667 678.659 167.733 679.859 176.4C681.193 184.933 683.526 189.533 686.859 190.2C690.326 190.2 692.059 191.2 692.059 193.2C692.059 196.133 691.059 198.867 689.059 201.4C687.193 203.8 684.459 205 680.859 205C673.393 205 668.793 196.067 667.059 178.2C657.193 196.067 644.859 205 630.059 205C621.259 205 613.793 202.2 607.659 196.6C596.059 186.333 590.259 172.533 590.259 155.2C590.259 140.667 594.659 128 603.459 117.2C612.259 106.4 623.526 101 637.259 101C647.259 101 656.726 104.267 665.659 110.8C665.926 86 666.059 70.8667 666.059 65.4C666.059 59.9333 666.659 56.2 667.859 54.2C669.193 52.0667 671.259 51 674.059 51ZM721.838 58C727.304 58 730.038 61.2 730.038 67.6C730.038 70.5333 729.038 73.3333 727.038 76C725.171 78.5333 722.904 79.8 720.238 79.8C714.638 79.8 711.838 76.4 711.838 69.6C711.838 66.4 712.771 63.6667 714.638 61.4C716.638 59.1333 719.038 58 721.838 58ZM728.438 111L727.438 153L728.438 195C728.438 201.667 725.904 205 720.838 205C715.771 205 713.238 201.667 713.238 195L714.238 153L713.238 111C713.238 104.333 715.771 101 720.838 101C725.904 101 728.438 104.333 728.438 111ZM806.564 113C797.764 113 790.364 116.333 784.364 123C778.497 129.533 774.631 137.2 772.764 146C779.964 148.133 788.031 149.2 796.964 149.2C806.031 149.2 813.297 147.667 818.764 144.6C824.231 141.533 826.964 137.333 826.964 132C826.964 126.667 825.097 122.2 821.364 118.6C817.764 114.867 812.831 113 806.564 113ZM797.964 161.8C791.031 161.8 782.564 160.8 772.564 158.8C773.364 168.267 776.831 176.333 782.964 183C789.231 189.667 796.497 193 804.764 193C813.031 193 819.831 191 825.164 187C830.497 182.867 833.964 180.8 835.564 180.8C837.297 180.8 838.631 181.333 839.564 182.4C840.631 183.333 841.164 184.533 841.164 186C841.164 189.733 837.297 194 829.564 198.8C821.964 203.6 813.697 206 804.764 206C790.897 206 779.831 201.133 771.564 191.4C763.431 181.533 759.097 169.8 758.564 156.2C751.497 153.933 747.964 150.467 747.964 145.8C747.964 142.733 749.097 140.733 751.364 139.8C752.164 139.533 753.164 139.4 754.364 139.4C755.697 139.4 757.497 140 759.764 141.2C762.831 129.067 768.364 119.2 776.364 111.6C784.497 103.867 793.964 100 804.764 100C815.697 100 824.497 103 831.164 109C837.831 115 841.164 122.867 841.164 132.6C841.164 142.2 837.031 149.467 828.764 154.4C820.497 159.333 810.231 161.8 797.964 161.8ZM934.177 174.2C934.177 183.133 930.443 190.533 922.977 196.4C915.643 202.133 906.843 205 896.577 205C886.31 205 877.31 202.667 869.577 198C861.977 193.2 858.177 188.467 858.177 183.8C858.177 180.733 859.443 178.667 861.977 177.6C864.51 176.533 866.443 176.667 867.777 178C868.043 178.133 870.71 180.733 875.777 185.8C877.243 187.133 879.977 188.533 883.977 190C887.977 191.333 891.51 192 894.577 192C902.043 192 908.11 190.467 912.777 187.4C917.443 184.333 919.777 180 919.777 174.4C919.777 167.333 913.11 161.533 899.777 157C884.977 151.933 875.51 147.6 871.377 144C869.377 142.267 867.51 140 865.777 137.2C864.177 134.267 863.377 131.2 863.377 128C863.377 120.8 866.643 114.533 873.177 109.2C879.843 103.733 887.777 101 896.977 101C906.177 101 913.643 102.6 919.377 105.8C925.11 108.867 927.977 112.333 927.977 116.2C927.977 120.6 925.643 122.8 920.977 122.8C919.11 122.8 917.11 122.067 914.977 120.6C908.577 116.2 902.377 114 896.377 114C890.51 114 886.043 115.333 882.977 118C879.377 120.533 877.577 123.533 877.577 127C877.577 130.333 879.31 133.067 882.777 135.2C886.243 137.333 891.91 140 899.777 143.2C907.643 146.267 912.443 148.2 914.177 149C920.043 151.533 924.843 155 928.577 159.4C932.31 163.8 934.177 168.733 934.177 174.2Z" fill="#4B71BE"/>
<defs>
<clipPath id="clip0_26_17">
<rect width="200" height="209" fill="white"/>
</clipPath>
</defs>
</svg>
