<svg width="1016" height="209" viewBox="0 0 1016 209" fill="none" xmlns="http://www.w3.org/2000/svg">
<g clip-path="url(#clip0_26_17)">
<path d="M196.487 208.974H100.391C100.019 208.974 99.6513 208.9 99.3078 208.758C98.9644 208.615 98.6525 208.406 98.3899 208.142C98.1274 207.878 97.9194 207.565 97.7779 207.221C97.6364 206.876 97.5641 206.507 97.5653 206.135V205.996L103.217 93.2576C103.26 92.5375 103.575 91.8607 104.098 91.3654C104.622 90.8702 105.315 90.5938 106.035 90.5928H190.835C192.339 90.5928 193.565 91.7684 193.652 93.2489L199.278 205.438C199.336 205.653 199.365 205.888 199.365 206.144C199.365 206.892 199.068 207.618 198.54 208.148C198.012 208.677 197.295 208.974 196.548 208.974H196.539H196.487ZM117.374 114.245C117.391 118.32 120.061 121.76 123.739 122.936L123.8 122.953C126.765 137.33 136.965 147.972 149.087 147.972C161.209 147.972 171.391 137.322 174.339 122.997C176.312 122.413 178.031 121.183 179.223 119.504C180.414 117.825 181.008 115.794 180.909 113.736C180.81 111.679 180.025 109.714 178.679 108.157C177.332 106.6 175.503 105.541 173.483 105.149C171.464 104.758 169.372 105.056 167.543 105.997C165.713 106.938 164.252 108.467 163.393 110.338C162.534 112.21 162.328 114.316 162.807 116.319C163.286 118.322 164.423 120.106 166.035 121.385L166.052 121.403C163.896 131.835 157.104 139.49 149.052 139.49C141 139.49 134.244 131.879 132.07 121.49C133.297 120.538 134.263 119.289 134.875 117.86C135.488 116.432 135.727 114.87 135.571 113.323C135.415 111.776 134.868 110.295 133.982 109.018C133.096 107.741 131.9 106.711 130.506 106.025C129.113 105.339 127.568 105.019 126.018 105.096C124.467 105.173 122.961 105.644 121.642 106.464C120.324 107.285 119.235 108.428 118.479 109.786C117.723 111.144 117.325 112.672 117.322 114.227V114.253L117.374 114.245ZM2.82612 197.853C2.44218 197.853 2.06239 197.774 1.70992 197.621C1.35745 197.469 1.03969 197.246 0.776045 196.967C0.512398 196.687 0.308387 196.357 0.176463 195.996C0.0445388 195.635 -0.0125322 195.25 0.00873268 194.866L7.8696 38.1686C7.91171 37.4486 8.22676 36.7718 8.7504 36.2765C9.27403 35.7812 9.96674 35.5049 10.687 35.5039H29.8522C35.8609 14.6039 51.8957 0.00872803 70.5392 0.00872803C89.1827 0.00872803 105.2 14.6126 111.209 35.4865H128.557C130.052 35.4865 131.287 36.6621 131.365 38.1425L133.635 83.5129H106.035C100.748 83.5129 96.4348 87.6668 96.1653 92.8918V92.9179L90.9044 197.862L2.82612 197.853ZM95.2 49.4459C92.9384 50.9224 91.213 53.0903 90.2804 55.6275C89.3477 58.1647 89.2577 60.9356 90.0235 63.5281C90.7894 66.1207 92.3704 68.3964 94.5313 70.017C96.6922 71.6376 99.3177 72.5165 102.017 72.523C104.951 72.5359 107.795 71.517 110.055 69.6442C112.315 67.7714 113.847 65.1635 114.383 62.2754C114.919 59.3873 114.426 56.4024 112.989 53.8413C111.552 51.2802 109.264 49.3055 106.522 48.2616L106.435 48.2355C104.383 25.0887 89.0696 7.05377 70.5479 7.05377C52.0261 7.05377 36.6522 25.1236 34.6261 48.3139C32.0059 49.3403 29.8072 51.2207 28.3846 53.6517C26.962 56.0826 26.3984 58.9226 26.7847 61.7136C27.1709 64.5046 28.4845 67.084 30.5136 69.0359C32.5428 70.9878 35.1692 72.1984 37.9694 72.4726C40.7697 72.7468 43.5805 72.0685 45.9487 70.5471C48.3169 69.0258 50.1045 66.75 51.0232 64.0868C51.9419 61.4236 51.9383 58.5281 51.0127 55.8672C50.0872 53.2063 48.2939 50.9351 45.9218 49.4198L45.8696 49.3937C47.3305 31.9596 57.8348 18.392 70.5479 18.392C83.2609 18.392 93.7913 32.0031 95.2261 49.4721L95.2 49.4459ZM57.0348 35.4691H83.9913C82.8491 32.7571 81.0052 30.3993 78.6497 28.6389C76.2942 26.8785 73.5125 25.7793 70.5913 25.4545L70.5131 25.4458C64.4261 26.1163 59.3826 30.0176 57.0783 35.3733L57.0348 35.4691ZM168.33 114.001C168.297 113.545 168.359 113.087 168.51 112.656C168.662 112.225 168.9 111.829 169.211 111.495C169.522 111.16 169.899 110.893 170.317 110.71C170.736 110.528 171.187 110.434 171.644 110.434C172.1 110.434 172.552 110.528 172.97 110.71C173.388 110.893 173.765 111.16 174.076 111.495C174.387 111.829 174.625 112.225 174.777 112.656C174.928 113.087 174.99 113.545 174.957 114.001C174.883 114.829 174.503 115.599 173.89 116.16C173.278 116.722 172.478 117.033 171.648 117.033C170.818 117.033 170.018 116.722 169.405 116.16C168.793 115.599 168.404 114.829 168.33 114.001ZM122.904 114.001C122.904 113.343 123.099 112.7 123.464 112.153C123.829 111.606 124.348 111.179 124.955 110.927C125.562 110.676 126.23 110.61 126.874 110.738C127.519 110.867 128.11 111.183 128.575 111.649C129.04 112.114 129.356 112.707 129.484 113.352C129.612 113.997 129.546 114.666 129.295 115.274C129.044 115.882 128.618 116.401 128.072 116.767C127.525 117.132 126.883 117.327 126.226 117.327C125.792 117.325 125.363 117.237 124.963 117.069C124.563 116.9 124.2 116.655 123.895 116.346C123.589 116.037 123.348 115.671 123.184 115.269C123.02 114.866 122.937 114.435 122.939 114.001H122.904ZM97.0261 60.4794C97.0261 59.1687 97.546 57.9117 98.4715 56.9849C99.3969 56.0581 100.652 55.5374 101.961 55.5374C103.27 55.5374 104.525 56.0581 105.45 56.9849C106.376 57.9117 106.896 59.1687 106.896 60.4794C106.896 61.7901 106.376 63.0471 105.45 63.9739C104.525 64.9007 103.27 65.4214 101.961 65.4214C100.652 65.4214 99.3969 64.9007 98.4715 63.9739C97.546 63.0471 97.0261 61.7901 97.0261 60.4794ZM34.1739 60.4794C34.1246 59.799 34.2157 59.1158 34.4418 58.4722C34.6679 57.8287 35.0239 57.2388 35.4878 56.7393C35.9517 56.2397 36.5134 55.8413 37.1379 55.5688C37.7624 55.2964 38.4363 55.1558 39.1174 55.1558C39.7986 55.1558 40.4725 55.2964 41.097 55.5688C41.7215 55.8413 42.2832 56.2397 42.747 56.7393C43.2109 57.2388 43.567 57.8287 43.7931 58.4722C44.0191 59.1158 44.1103 59.799 44.0609 60.4794C43.9569 61.7196 43.3915 62.8754 42.4767 63.7178C41.5619 64.5602 40.3645 65.0277 39.1218 65.0277C37.879 65.0277 36.6816 64.5602 35.7669 63.7178C34.8521 62.8754 34.278 61.7196 34.1739 60.4794Z" fill="#4B71BE"/>
</g>
<path d="M306.2 143.4C302.2 143.933 298.467 144.267 295 144.4C291.667 144.533 288.467 144.6 285.4 144.6C276.467 144.6 270.467 143.933 267.4 142.6C264.333 141.133 262.8 138.667 262.8 135.2C262.8 132.933 263.533 130.867 265 129C266.6 127.133 268.867 125.533 271.8 124.2C275.267 122.733 280.333 121.4 287 120.2C293.8 118.867 300.8 118.2 308 118.2C317.333 118.2 324.533 119 329.6 120.6C334.8 122.067 337.4 124.933 337.4 129.2C337.4 132.533 336.067 135.4 333.4 137.8C330.733 140.067 326.333 141.533 320.2 142.2L306.2 143.4ZM321 139.4C324.467 143.8 326.933 148.267 328.4 152.8C329.867 157.333 330.6 161.4 330.6 165C330.6 171 328.8 176.8 325.2 182.4C321.733 187.867 316.267 192.4 308.8 196C301.333 199.467 291.533 201.2 279.4 201.2C263.8 201.2 250.8 198.333 240.4 192.6C230.133 186.733 222.467 178.533 217.4 168C212.333 157.333 209.8 144.933 209.8 130.8C209.8 115.6 213 102.133 219.4 90.4C225.8 78.6667 234.867 69.5333 246.6 63C258.333 56.3333 272.067 53 287.8 53C300.867 53 310.867 55.3333 317.8 60C324.867 64.5333 328.4 69.8667 328.4 76C328.4 79.7333 327.133 82.6667 324.6 84.8C322.2 86.8 318.667 87.8 314 87.8C311.2 87.8 308.267 87.3333 305.2 86.4C302.267 85.4667 298.933 84.6 295.2 83.8C291.6 82.8667 287.467 82.4 282.8 82.4C274.267 82.4 266.4 84 259.2 87.2C252 90.2667 246.2 95.4 241.8 102.6C237.533 109.667 235.4 119.2 235.4 131.2C235.4 141.467 237.333 149.867 241.2 156.4C245.2 162.8 250.733 167.533 257.8 170.6C264.867 173.533 272.933 175 282 175C288.133 175 292.933 174.333 296.4 173C300 171.667 302.533 169.667 304 167C305.6 164.333 306.4 160.933 306.4 156.8C306.4 154.533 306.067 151.733 305.4 148.4C304.867 145.067 304 141.733 302.8 138.4L321 139.4ZM401.62 199.6C390.954 199.6 381.62 197.267 373.62 192.6C365.754 187.8 359.62 181 355.22 172.2C350.954 163.4 348.82 152.933 348.82 140.8C348.82 128.133 351.02 117.067 355.42 107.6C359.82 98.1333 366.02 90.7333 374.02 85.4C382.154 80.0667 391.554 77.4 402.22 77.4C413.687 77.4 423.62 80 432.02 85.2C440.42 90.2667 446.954 97.4 451.62 106.6C456.287 115.8 458.62 126.533 458.62 138.8C458.62 151.333 456.287 162.133 451.62 171.2C446.954 180.267 440.354 187.267 431.82 192.2C423.287 197.133 413.22 199.6 401.62 199.6ZM404.42 172.6C412.687 172.6 419.22 169.333 424.02 162.8C428.954 156.133 431.42 147.333 431.42 136.4C431.42 125.333 428.954 116.533 424.02 110C419.22 103.467 412.687 100.2 404.42 100.2C395.887 100.2 389.154 103.467 384.22 110C379.287 116.533 376.82 125.333 376.82 136.4C376.82 147.333 379.287 156.133 384.22 162.8C389.154 169.333 395.887 172.6 404.42 172.6ZM527.402 199.6C516.735 199.6 507.402 197.267 499.402 192.6C491.535 187.8 485.402 181 481.002 172.2C476.735 163.4 474.602 152.933 474.602 140.8C474.602 128.133 476.802 117.067 481.202 107.6C485.602 98.1333 491.802 90.7333 499.802 85.4C507.935 80.0667 517.335 77.4 528.002 77.4C539.468 77.4 549.402 80 557.802 85.2C566.202 90.2667 572.735 97.4 577.402 106.6C582.068 115.8 584.402 126.533 584.402 138.8C584.402 151.333 582.068 162.133 577.402 171.2C572.735 180.267 566.135 187.267 557.602 192.2C549.068 197.133 539.002 199.6 527.402 199.6ZM530.202 172.6C538.468 172.6 545.002 169.333 549.802 162.8C554.735 156.133 557.202 147.333 557.202 136.4C557.202 125.333 554.735 116.533 549.802 110C545.002 103.467 538.468 100.2 530.202 100.2C521.668 100.2 514.935 103.467 510.002 110C505.068 116.533 502.602 125.333 502.602 136.4C502.602 147.333 505.068 156.133 510.002 162.8C514.935 169.333 521.668 172.6 530.202 172.6ZM641.983 201.8C628.916 201.8 618.716 196.933 611.383 187.2C604.049 177.333 600.383 162.333 600.383 142.2C600.383 122.2 603.983 107.6 611.183 98.4C618.516 89.0667 628.983 84.4 642.583 84.4C650.316 84.4 657.049 86 662.783 89.2C668.649 92.4 673.849 96.9333 678.383 102.8L676.783 103.6C675.583 98.1333 674.383 92.3333 673.183 86.2C671.983 80.0667 670.983 74.2667 670.183 68.8C669.516 63.2 669.183 58.8 669.183 55.6C669.183 51.0667 669.916 47.6 671.383 45.2C672.849 42.6667 675.183 41.4 678.383 41.4C682.916 41.4 686.583 43.3333 689.383 47.2C692.183 50.9333 694.516 56.7333 696.383 64.6C698.116 71.6667 699.649 80.0667 700.983 89.8C702.316 99.4 703.383 109.467 704.183 120C705.116 130.4 705.583 140.4 705.583 150C705.583 163.333 704.849 173.733 703.383 181.2C702.049 188.533 700.116 193.667 697.583 196.6C695.183 199.533 692.316 201 688.983 201C684.849 201 682.049 198.933 680.583 194.8C679.116 190.667 678.516 183.933 678.783 174.6H681.783C678.183 182.867 672.916 189.467 665.983 194.4C659.183 199.333 651.183 201.8 641.983 201.8ZM652.583 177C657.383 177 661.783 175.8 665.783 173.4C669.916 170.867 673.183 167 675.583 161.8C678.116 156.6 679.383 150 679.383 142C679.383 131.733 677.049 123.4 672.383 117C667.716 110.467 660.983 107.2 652.183 107.2C645.249 107.2 639.583 110.067 635.183 115.8C630.916 121.533 628.783 130.2 628.783 141.8C628.783 152.067 630.916 160.533 635.183 167.2C639.583 173.733 645.383 177 652.583 177ZM747.573 45.6C752.907 45.6 756.707 47.0667 758.973 50C761.373 52.9333 762.573 56.3333 762.573 60.2C762.573 65 761.107 68.7333 758.173 71.4C755.373 73.9333 751.373 75.2 746.173 75.2C741.107 75.2 737.307 73.8 734.773 71C732.24 68.0667 730.973 64.6667 730.973 60.8C730.973 55.7333 732.507 51.9333 735.573 49.4C738.64 46.8667 742.64 45.6 747.573 45.6ZM748.773 90.2C753.04 90.2 756.373 94.2 758.773 102.2C761.307 110.2 762.573 122.933 762.573 140.4C762.573 161.867 761.04 177.333 757.973 186.8C754.907 196.267 750.24 201 743.973 201C739.173 201 735.64 197.533 733.373 190.6C731.107 183.533 729.973 171.267 729.973 153.8C729.973 132.333 731.707 116.4 735.173 106C738.773 95.4667 743.307 90.2 748.773 90.2ZM843.005 200.6C828.205 200.6 816.405 198.4 807.605 194C798.805 189.6 792.471 183.267 788.605 175C784.738 166.733 782.805 156.867 782.805 145.4C782.805 130.867 785.471 118.533 790.805 108.4C796.271 98.1333 803.738 90.2667 813.205 84.8C822.805 79.3333 833.671 76.6 845.805 76.6C860.071 76.6 870.538 79.9333 877.205 86.6C883.871 93.1333 887.205 101.733 887.205 112.4C887.205 120.933 884.938 128.333 880.405 134.6C876.005 140.733 869.871 145.467 862.005 148.8C854.138 152.133 845.071 153.8 834.805 153.8C829.071 153.8 823.538 153.067 818.205 151.6C812.871 150.133 808.071 148.133 803.805 145.6L808.605 136.8C808.205 140 808.005 143.2 808.005 146.4C808.005 155.733 810.938 162.467 816.805 166.6C822.671 170.6 831.005 172.6 841.805 172.6C850.205 172.6 856.938 171.867 862.005 170.4C867.071 168.933 871.338 167.533 874.805 166.2C878.271 164.733 881.671 164 885.005 164C886.871 164 888.538 164.533 890.005 165.6C891.605 166.533 892.871 167.933 893.805 169.8C894.871 171.667 895.405 173.933 895.405 176.6C895.405 180.6 893.405 184.467 889.405 188.2C885.405 191.8 879.471 194.8 871.605 197.2C863.871 199.467 854.338 200.6 843.005 200.6ZM831.405 135.2C840.871 135.2 848.471 133.2 854.205 129.2C859.938 125.2 862.805 120.267 862.805 114.4C862.805 109.733 861.205 105.933 858.005 103C854.938 99.9333 850.071 98.4 843.405 98.4C837.138 98.4 831.471 99.6 826.405 102C821.471 104.267 817.605 107.267 814.805 111C812.005 114.733 810.605 118.8 810.605 123.2C810.605 127.067 812.405 130.067 816.005 132.2C819.738 134.2 824.871 135.2 831.405 135.2ZM963.581 73.8C975.448 73.8 983.981 75.5333 989.181 79C994.381 82.4667 996.981 86.9333 996.981 92.4C996.981 95.6 995.848 98.2667 993.581 100.4C991.448 102.4 988.381 103.4 984.381 103.4C980.248 103.4 975.915 102.8 971.381 101.6C966.981 100.4 961.848 99.8 955.981 99.8C949.181 99.8 944.115 101.133 940.781 103.8C937.448 106.467 935.781 109.867 935.781 114C935.781 117.867 937.248 120.933 940.181 123.2C943.248 125.333 949.048 126.933 957.581 128C967.048 129.067 974.848 130.8 980.981 133.2C987.248 135.467 991.915 138.933 994.981 143.6C998.048 148.133 999.581 154.4 999.581 162.4C999.581 175.067 995.115 184.467 986.181 190.6C977.248 196.733 964.915 199.8 949.181 199.8C939.181 199.8 931.248 199 925.381 197.4C919.515 195.8 915.248 193.533 912.581 190.6C910.048 187.667 908.781 184.2 908.781 180.2C908.781 176.733 909.915 174.067 912.181 172.2C914.581 170.2 917.381 169.2 920.581 169.2C923.648 169.2 926.915 169.6 930.381 170.4C933.848 171.067 937.515 171.8 941.381 172.6C945.248 173.4 949.248 173.8 953.381 173.8C966.715 173.8 973.381 169.667 973.381 161.4C973.381 158.6 972.715 156.333 971.381 154.6C970.048 152.867 967.648 151.467 964.181 150.4C960.715 149.2 955.648 148.267 948.981 147.6C940.981 146.8 934.048 145.467 928.181 143.6C922.315 141.6 917.781 138.4 914.581 134C911.381 129.467 909.781 123.267 909.781 115.4C909.781 103 914.448 93 923.781 85.4C933.115 77.6667 946.381 73.8 963.581 73.8Z" fill="#4B71BE"/>
<defs>
<clipPath id="clip0_26_17">
<rect width="200" height="209" fill="white"/>
</clipPath>
</defs>
</svg>
